<svg width="512" height="512" viewBox="0 0 140 140" fill="none" xmlns="http://www.w3.org/2000/svg">
    <defs>
        <linearGradient id="shieldGrad" x1="0%" y1="0%" x2="0%" y2="100%">
            <stop offset="0%" style="stop-color:#4CAF50"/>
            <stop offset="100%" style="stop-color:#2E7D32"/>
        </linearGradient>
    </defs>
    <!-- Shield -->
    <path d="M70 20 L110 35 L110 70 C110 100 90 120 70 130 C50 120 30 100 30 70 L30 35 L70 20Z" fill="url(#shieldGrad)"/>
    <!-- Inner shield -->
    <path d="M70 30 L100 42 L100 70 C100 92 85 108 70 117 C55 108 40 92 40 70 L40 42 L70 30Z" fill="#388E3C" opacity="0.5"/>
    <!-- Heart center -->
    <path d="M70 50 C70 50 52 60 52 72 C52 82 60 90 70 98 C80 90 88 82 88 72 C88 60 70 50 70 50Z" fill="#FF6B6B"/>
    <!-- Pulse on heart -->
    <path d="M52 72 L62 72 L67 65 L73 80 L80 68 L88 72" stroke="white" stroke-width="2" stroke-linecap="round" stroke-linejoin="round" fill="none" opacity="0.8"/>
    <!-- Leaf accent -->
    <path d="M95 30 C95 30 105 25 110 30 C115 35 110 45 105 45 C100 45 95 38 95 30Z" fill="#81C784"/>
</svg>